<?xml version="1.0" encoding="UTF-8" standalone="no"?>
<svg
   id="svg1"
   viewBox="0 0 5669.29 2125.98"
   version="1.1"
   sodipodi:docname="sfd_banner-fa.svg"
   inkscape:version="1.4.2 (ebf0e940d0, 2025-05-08)"
   xmlns:inkscape="http://www.inkscape.org/namespaces/inkscape"
   xmlns:sodipodi="http://sodipodi.sourceforge.net/DTD/sodipodi-0.dtd"
   xmlns="http://www.w3.org/2000/svg"
   xmlns:svg="http://www.w3.org/2000/svg"
   xmlns:rdf="http://www.w3.org/1999/02/22-rdf-syntax-ns#"
   xmlns:cc="http://creativecommons.org/ns#"
   xmlns:dc="http://purl.org/dc/elements/1.1/">
  <title
     id="title77">پوستر جشن روز آزادی نرم‌افزار</title>
  <sodipodi:namedview
     id="namedview77"
     pagecolor="#ffffff"
     bordercolor="#000000"
     borderopacity="0.25"
     inkscape:showpageshadow="2"
     inkscape:pageopacity="0.0"
     inkscape:pagecheckerboard="0"
     inkscape:deskcolor="#d1d1d1"
     inkscape:zoom="0.12541253"
     inkscape:cx="2786.8029"
     inkscape:cy="685.73691"
     inkscape:window-width="1600"
     inkscape:window-height="863"
     inkscape:window-x="0"
     inkscape:window-y="0"
     inkscape:window-maximized="1"
     inkscape:current-layer="layer1" />
  <defs
     id="defs6">
    <style
       id="style1">
      .cls-1 {
        fill: url(#linear-gradient-2);
      }

      .cls-2 {
        fill: #fff;
      }

      .cls-3 {
        mask: url(#mask);
      }

      .cls-4 {
        fill: #ff6a27;
      }

      .cls-5 {
        fill: #f9bd1e;
      }

      .cls-6 {
        fill: none;
      }

      .cls-7 {
        fill: url(#radial-gradient);
      }

      .cls-8, .cls-9 {
        isolation: isolate;
      }

      .cls-10 {
        fill: #999;
      }

      .cls-11 {
        fill: #1c1313;
      }

      .cls-12 {
        fill: #ccc;
      }

      .cls-13 {
        fill: url(#linear-gradient);
      }

      .cls-9 {
        fill: url(#pattern3);
        opacity: .62;
      }
    </style>
    <radialGradient
       id="radial-gradient"
       cx="2411.06"
       cy="1517.43"
       fx="2411.06"
       fy="1517.43"
       r="537.95"
       gradientTransform="translate(-3403.93 3747.18) scale(2.83 -1.75)"
       gradientUnits="userSpaceOnUse">
      <stop
         offset=".04"
         stop-color="#000"
         id="stop1" />
      <stop
         offset="1"
         stop-color="#000"
         stop-opacity="0"
         id="stop2" />
    </radialGradient>
    <mask
       id="mask"
       x="-2.83"
       y="-124.99"
       width="5674.96"
       height="2427.54"
       maskUnits="userSpaceOnUse">
      <g
         id="mask-powermask-path-effect5">
        <path
           id="mask-powermask-path-effect5_box"
           data-name="mask-powermask-path-effect5 box"
           class="cls-2"
           d="M-2.83-2.83h5674.96v2131.65H-2.83V-2.83Z" />
        <ellipse
           id="ellipse5"
           class="cls-7"
           cx="3430.59"
           cy="1088.78"
           rx="1963.92"
           ry="1213.77" />
      </g>
    </mask>
    <pattern
       id="pattern3"
       x="0"
       y="0"
       width="5669.29"
       height="2125.98"
       patternTransform="translate(296452.28 -49151.07) scale(56.69 -56.69)"
       patternUnits="userSpaceOnUse"
       viewBox="0 0 5669.29 2125.98">
      <rect
         class="cls-6"
         width="5669.29"
         height="2125.98"
         id="rect2" />
    </pattern>
    <linearGradient
       id="linear-gradient"
       x1="1251.18"
       y1="1413.97"
       x2="1787.57"
       y2="1957.41"
       gradientTransform="translate(-3403.93 5066.94) scale(2.83 -2.83)"
       gradientUnits="userSpaceOnUse">
      <stop
         offset="0"
         stop-color="#ff6a27"
         id="stop3" />
      <stop
         offset="1"
         stop-color="#1c1313"
         id="stop4" />
    </linearGradient>
    <linearGradient
       id="linear-gradient-2"
       x1="1200.88"
       y1="1412.4"
       x2="1897.57"
       y2="1791.11"
       gradientTransform="translate(-3403.93 5066.94) scale(2.83 -2.83)"
       gradientUnits="userSpaceOnUse">
      <stop
         offset="0"
         stop-color="#f9c71d"
         id="stop5" />
      <stop
         offset="1"
         stop-color="#f9c71d"
         stop-opacity="0"
         id="stop6" />
    </linearGradient>
  </defs>
  <g
     id="layer1">
    <rect
       id="rect9"
       class="cls-11"
       width="5669.29"
       height="2125.98"
       rx=".72"
       ry=".72" />
    <g
       class="cls-3"
       mask="url(#mask)"
       id="g6">
      <path
         id="rect1"
         class="cls-9"
         d="M.72,0h5667.84c.4,0,.72.32.72.72v2124.54c0,.4-.32.72-.72.72H.72c-.4,0-.72-.32-.72-.72V.72c0-.4.32-.72.72-.72Z" />
    </g>
    <path
       id="path33"
       class="cls-13"
       d="M1979.66,0C1321.7,0,0,.72,0,.72v2125.26C1253.48,1851.63,682.79,378.84,1979.66,0Z" />
    <path
       id="path32"
       class="cls-1"
       d="M1979.66,0C1417.52,0,0,.72,0,.72v2125.26C1037.74,1253.16,318.26,461.1,1979.66,0Z" />
    <path
       id="path21"
       class="cls-2"
       d="M1979.66,0C31.24,130.53,662.46,1378.24,0,2125.98V.72l1979.66-.72Z" />
    <g
       id="g31"
       transform="translate(0,31.89474)">
      <path
         id="path22"
         class="cls-5"
         d="m 396.26,277.77 c 0.71,4.13 1.21,8.33 1.44,12.6 -11.62,0.88 -17.97,-1.16 -17.97,-1.16 -5.12,-5.76 -10.93,-9.95 -16.81,-12.99 -3.88,0.41 -7.81,1 -11.75,1.79 -51.82,10.38 -95.57,35.52 -128.11,60.17 1.21,1.79 2.48,3.53 3.88,5.14 -6.56,11.64 -9.4,18.59 -14.34,30.59 -4.99,-4.91 -9.51,-10.31 -13.48,-16.1 -13.54,12 -23.89,22.77 -30.58,30.19 H 500.13 C 490.01,360.06 458.98,290.94 396.25,277.78 v 0 z" />
      <path
         id="path23"
         class="cls-5"
         d="m 396.26,277.77 c -6.75,-1.42 -13.86,-2.2 -21.36,-2.2 -3.92,0 -7.91,0.22 -11.96,0.64 -3.88,0.41 -7.81,1 -11.75,1.79 -51.82,10.38 -95.57,35.52 -128.11,60.17 -8.83,6.68 -16.82,13.32 -23.94,19.63 -13.54,12 -23.89,22.77 -30.58,30.19 H 500.15 C 490.03,360.05 459,290.93 396.27,277.77 Z" />
      <path
         id="path24"
         class="cls-5"
         d="m 204.86,181.82 c 0,0 13.59,17.1 10.35,-0.42 -3.25,-17.52 -29.24,-51.76 -42.33,-43.47 -13.1,8.28 -6.48,15.11 1.75,19.51 8.23,4.4 24.45,15.56 30.24,24.37 v 0 z" />
      <path
         id="path25"
         class="cls-5"
         d="m 273.97,155.24 c 0,0 -2.7,23.15 8.11,7.51 10.8,-15.64 17.11,-61.07 0.99,-64.73 -16.13,-3.66 -16.3,6.48 -13.43,16.01 2.87,9.53 6.65,30.2 4.34,41.22 z" />
      <path
         id="path26"
         class="cls-5"
         d="m 350.29,163.27 c 0,0 -17.3,21.21 3.27,12.55 20.57,-8.67 55.52,-49.65 41.87,-63.46 -13.65,-13.8 -20.23,-3.87 -23.4,7.37 -3.19,11.25 -12.5,34.09 -21.73,43.54 z" />
      <path
         id="path27"
         class="cls-5"
         d="m 405.54,218.26 c 0,0 -27.03,7.51 -4.69,12.43 22.35,4.92 75.85,-8.68 72.6,-28.32 -3.24,-19.64 -14.63,-15.22 -23.95,-7.69 -9.32,7.53 -30.64,21.13 -43.96,23.57 v 0 z" />
      <path
         id="path28"
         class="cls-5"
         d="m 161.36,233.97 c 0,0 17.97,5.97 7.3,-5.2 -10.66,-11.18 -45.77,-23.7 -51.34,-11.47 -5.57,12.23 2.46,14.03 10.53,13.32 8.05,-0.71 25.12,-0.3 33.51,3.34 v 0 z" />
      <path
         id="path29"
         class="cls-5"
         d="m 148.58,291.67 c 0,0 15.16,-0.71 3.96,-6 -11.2,-5.28 -41.07,-4.54 -41.72,6.22 -0.64,10.75 5.9,9.79 11.72,6.94 5.82,-2.86 18.71,-7.47 26.04,-7.15 z" />
      <path
         id="path30"
         class="cls-5"
         d="m 217.98,266.37 c 14.66,-35.01 55.25,-51.37 90.68,-36.54 9.89,4.15 18.33,10.29 25.05,17.74 -5.69,-5.48 -12.46,-10.04 -20.2,-13.27 -33.15,-13.88 -71.13,1.43 -84.85,34.18 -6.94,16.58 -6.31,34.43 0.28,49.84 2.79,-1.93 5.63,-3.85 8.55,-5.76 -1.63,-5.13 -2.52,-10.58 -2.52,-16.24 0,-29.79 24.23,-54.02 54.02,-54.02 19.65,0 36.88,10.55 46.33,26.29 h 0.04 c 4.38,-1.11 8.82,-2.13 13.33,-3.03 8.89,-1.78 17.71,-2.68 26.21,-2.68 6.31,0 12.35,0.49 18.17,1.4 -13.68,-44.49 -55.1,-76.84 -104.08,-76.84 -60.14,0 -108.88,48.75 -108.88,108.88 0,18.22 4.51,35.37 12.42,50.46 7.34,-6.42 15.55,-13.16 24.57,-19.91 -7.4,-18.54 -6.95,-41.77 0.88,-60.5 z" />
      <path
         id="path31"
         class="cls-5"
         d="m 161.88,342.58 c 0,0 8.99,-7.76 -0.46,-5.61 -9.44,2.15 -27.47,17.04 -22.67,23.98 4.78,6.93 8.35,3.18 10.56,-1.39 2.21,-4.57 7.91,-13.63 12.57,-16.98 z" />
    </g>
    <g
       id="text7">
      <g
         class="cls-8"
         id="g18" />
      <g
         id="g50"
         transform="translate(-878.46054)">
        <path
           class="cls-12"
           d="m 3171.97,1859.18 c -5.46,0 -9.85,-1.91 -13.18,-5.73 -3.33,-3.82 -5,-9.2 -5,-16.15 0,-4.54 0.9,-8.46 2.71,-11.76 1.81,-3.3 4.16,-5.84 7.06,-7.62 2.9,-1.78 5.99,-2.67 9.26,-2.67 2.47,0 4.72,0.47 6.76,1.42 2.04,0.95 3.95,2.28 5.73,4.01 h 0.26 l -0.34,-7.75 v -16.11 h 7.06 v 61.33 h -5.86 l -0.6,-5.51 h -0.26 c -1.67,1.78 -3.69,3.32 -6.07,4.61 -2.38,1.29 -4.9,1.94 -7.54,1.94 z m 1.46,-5.95 c 2.07,0 4.08,-0.53 6.03,-1.59 1.95,-1.06 3.88,-2.63 5.77,-4.7 v -20.84 c -1.89,-1.78 -3.75,-3.04 -5.56,-3.79 -1.81,-0.75 -3.63,-1.12 -5.47,-1.12 -2.41,0 -4.61,0.68 -6.59,2.02 -1.98,1.35 -3.56,3.22 -4.74,5.6 -1.18,2.38 -1.77,5.18 -1.77,8.4 0,5 1.09,8.92 3.27,11.76 2.18,2.84 5.2,4.26 9.04,4.26 z"
           id="path19" />
        <path
           class="cls-12"
           d="m 3227.52,1858.14 v -36.09 h -19.47 v -5.77 h 26.53 v 41.86 z m 2.76,-50.65 c -1.61,0 -2.96,-0.5 -4.05,-1.51 -1.09,-1 -1.64,-2.34 -1.64,-4.01 0,-1.67 0.54,-3 1.64,-4 1.09,-1 2.44,-1.51 4.05,-1.51 1.61,0 2.96,0.5 4.05,1.51 1.09,1 1.64,2.34 1.64,4 0,1.66 -0.55,3 -1.64,4.01 -1.09,1 -2.44,1.51 -4.05,1.51 z"
           id="path20" />
        <path
           class="cls-12"
           d="m 3277.48,1877.44 c -4.08,0 -7.55,-0.46 -10.42,-1.38 -2.87,-0.92 -5.07,-2.24 -6.59,-3.96 -1.52,-1.72 -2.28,-3.82 -2.28,-6.29 0,-1.67 0.59,-3.32 1.77,-4.95 1.18,-1.64 2.89,-3.09 5.12,-4.35 v -0.34 c -1.09,-0.63 -2.08,-1.49 -2.97,-2.58 -0.89,-1.09 -1.33,-2.53 -1.33,-4.31 0,-1.32 0.43,-2.68 1.29,-4.09 0.86,-1.41 2.1,-2.66 3.7,-3.75 v -0.34 c -1.44,-1.09 -2.66,-2.55 -3.66,-4.39 -1,-1.84 -1.51,-3.99 -1.51,-6.46 0,-3.04 0.76,-5.69 2.28,-7.92 1.52,-2.24 3.53,-3.98 6.03,-5.21 2.5,-1.23 5.21,-1.85 8.14,-1.85 2.35,0 4.42,0.34 6.2,1.03 h 17.31 v 5.77 h -10.85 c 0.98,0.98 1.81,2.21 2.5,3.7 0.69,1.49 1.03,3.07 1.03,4.74 0,2.99 -0.72,5.56 -2.15,7.71 -1.44,2.15 -3.37,3.8 -5.81,4.95 -2.44,1.15 -5.18,1.72 -8.23,1.72 -1.09,0 -2.25,-0.13 -3.49,-0.39 -1.24,-0.26 -2.43,-0.65 -3.57,-1.16 -1.03,0.63 -1.84,1.35 -2.41,2.15 -0.57,0.8 -0.86,1.69 -0.86,2.67 0,1.61 0.76,2.81 2.28,3.62 1.52,0.8 3.66,1.21 6.42,1.21 h 9.39 c 5.4,0 9.4,0.75 12.02,2.24 2.61,1.49 3.92,4.02 3.92,7.58 0,2.58 -0.95,5 -2.84,7.24 -1.89,2.24 -4.58,4.03 -8.05,5.38 -3.47,1.35 -7.59,2.02 -12.36,2.02 z m 0.52,-5.17 c 3.27,0 6.09,-0.4 8.44,-1.21 2.35,-0.8 4.16,-1.84 5.43,-3.1 1.26,-1.26 1.89,-2.61 1.89,-4.05 0,-2.01 -0.79,-3.36 -2.37,-4.05 -1.58,-0.69 -3.98,-1.03 -7.19,-1.03 h -8.18 c -1.21,0 -2.34,-0.06 -3.4,-0.17 -1.06,-0.12 -2.05,-0.29 -2.97,-0.52 -1.95,1.09 -3.33,2.22 -4.13,3.4 -0.8,1.18 -1.21,2.37 -1.21,3.58 0,2.18 1.16,3.92 3.49,5.21 2.33,1.29 5.73,1.94 10.21,1.94 z m -0.95,-32.13 c 1.78,0 3.4,-0.4 4.87,-1.21 1.46,-0.8 2.63,-1.95 3.49,-3.45 0.86,-1.49 1.29,-3.24 1.29,-5.25 0,-2.01 -0.43,-3.66 -1.29,-5.13 -0.86,-1.46 -2.02,-2.61 -3.49,-3.45 -1.46,-0.83 -3.09,-1.25 -4.87,-1.25 -1.78,0 -3.32,0.42 -4.78,1.25 -1.46,0.83 -2.64,1.98 -3.53,3.45 -0.89,1.46 -1.33,3.17 -1.33,5.13 0,1.96 0.44,3.76 1.33,5.25 0.89,1.49 2.07,2.64 3.53,3.45 1.46,0.8 3.06,1.21 4.78,1.21 z"
           id="path34" />
        <path
           class="cls-12"
           d="m 3330.89,1858.14 v -36.09 h -19.47 v -5.77 h 26.53 v 41.86 z m 2.76,-50.65 c -1.61,0 -2.96,-0.5 -4.05,-1.51 -1.09,-1 -1.64,-2.34 -1.64,-4.01 0,-1.67 0.54,-3 1.64,-4 1.09,-1 2.44,-1.51 4.05,-1.51 1.61,0 2.96,0.5 4.05,1.51 1.09,1 1.64,2.34 1.64,4 0,1.66 -0.55,3 -1.64,4.01 -1.09,1 -2.44,1.51 -4.05,1.51 z"
           id="path35" />
        <path
           class="cls-12"
           d="m 3389.29,1859.18 c -4.08,0 -7.29,-0.73 -9.65,-2.2 -2.36,-1.46 -4.04,-3.49 -5.04,-6.07 -1.01,-2.58 -1.51,-5.6 -1.51,-9.04 v -19.81 h -11.8 v -5.34 l 12.06,-0.43 0.95,-13.44 h 5.86 v 13.44 h 20.59 v 5.77 h -20.59 v 19.9 c 0,2.47 0.32,4.57 0.95,6.29 0.63,1.72 1.72,3.02 3.27,3.88 1.55,0.86 3.67,1.29 6.37,1.29 2.01,0 3.82,-0.17 5.43,-0.52 1.61,-0.34 3.16,-0.8 4.65,-1.38 l 1.55,5.17 c -1.9,0.69 -3.89,1.28 -5.99,1.77 -2.1,0.49 -4.47,0.73 -7.11,0.73 z"
           id="path36" />
        <path
           class="cls-12"
           d="m 3428.22,1859.18 c -2.58,0 -4.97,-0.47 -7.15,-1.42 -2.18,-0.95 -3.91,-2.31 -5.17,-4.09 -1.26,-1.78 -1.89,-3.9 -1.89,-6.37 0,-4.71 2.35,-8.28 7.06,-10.72 4.71,-2.44 12.46,-4.09 23.26,-4.95 -0.06,-1.9 -0.45,-3.65 -1.16,-5.25 -0.72,-1.61 -1.88,-2.89 -3.49,-3.83 -1.61,-0.95 -3.76,-1.42 -6.46,-1.42 -1.78,0 -3.55,0.25 -5.3,0.73 -1.75,0.49 -3.42,1.12 -5,1.89 -1.58,0.78 -3.03,1.57 -4.35,2.37 l -2.76,-4.82 c 1.38,-0.92 3.06,-1.85 5.04,-2.8 1.98,-0.95 4.12,-1.72 6.42,-2.33 2.3,-0.6 4.68,-0.9 7.15,-0.9 3.85,0 7.02,0.72 9.52,2.15 2.5,1.44 4.36,3.43 5.6,5.99 1.23,2.56 1.85,5.59 1.85,9.09 v 25.67 h -5.77 l -0.6,-5.69 h -0.26 c -2.3,1.84 -4.88,3.42 -7.75,4.74 -2.87,1.32 -5.8,1.98 -8.79,1.98 z m 1.9,-5.69 c 2.41,0 4.79,-0.54 7.15,-1.64 2.35,-1.09 4.71,-2.61 7.06,-4.57 v -11.03 c -5.97,0.52 -10.67,1.24 -14.08,2.15 -3.42,0.92 -5.83,2.08 -7.24,3.49 -1.41,1.41 -2.11,3.03 -2.11,4.87 0,1.55 0.43,2.83 1.29,3.83 0.86,1.01 2,1.74 3.4,2.2 1.41,0.46 2.91,0.69 4.52,0.69 z"
           id="path37" />
        <path
           class="cls-12"
           d="m 3493.69,1859.18 c -4.42,0 -7.81,-1.28 -10.16,-3.83 -2.36,-2.55 -3.53,-6.3 -3.53,-11.24 v -41.52 h -14.3 v -5.77 h 21.36 v 47.81 c 0,3.04 0.75,5.25 2.24,6.63 1.49,1.38 3.47,2.07 5.94,2.07 1.21,0 2.44,-0.16 3.7,-0.47 1.26,-0.31 2.67,-0.82 4.22,-1.51 l 1.81,5.34 c -1.89,0.69 -3.68,1.28 -5.34,1.77 -1.67,0.49 -3.65,0.73 -5.94,0.73 z"
           id="path38" />
        <path
           class="cls-12"
           d="m 3519.27,1822.05 v -5.34 l 12.23,-0.43 h 24.29 v 5.77 z m 11.97,36.09 v -45.39 c 0,-3.39 0.62,-6.36 1.85,-8.92 1.23,-2.55 3.09,-4.54 5.56,-5.94 2.47,-1.41 5.63,-2.11 9.48,-2.11 2.07,0 4.09,0.19 6.07,0.56 1.98,0.37 3.98,0.99 5.99,1.85 l -1.64,5.34 c -1.72,-0.8 -3.32,-1.33 -4.78,-1.59 -1.46,-0.26 -3.12,-0.39 -4.95,-0.39 -3.73,0 -6.43,0.98 -8.1,2.93 -1.67,1.95 -2.5,4.62 -2.5,8.01 v 45.65 z"
           id="path39" />
        <path
           class="cls-12"
           d="m 3574.65,1858.14 v -41.86 h 5.86 l 0.6,9.91 h 0.26 c 2.18,-3.39 4.88,-6.06 8.1,-8.01 3.22,-1.95 6.75,-2.93 10.59,-2.93 1.55,0 3,0.13 4.35,0.39 1.35,0.26 2.66,0.7 3.92,1.33 l -1.64,6.12 c -1.44,-0.52 -2.67,-0.89 -3.7,-1.12 -1.03,-0.23 -2.38,-0.34 -4.05,-0.34 -3.16,0 -6.19,0.9 -9.09,2.71 -2.9,1.81 -5.61,4.9 -8.14,9.26 v 24.55 h -7.06 z"
           id="path40" />
        <path
           class="cls-12"
           d="m 3642.19,1859.18 c -4.19,0 -8,-0.86 -11.41,-2.58 -3.42,-1.72 -6.13,-4.23 -8.14,-7.54 -2.01,-3.3 -3.01,-7.28 -3.01,-11.93 0,-4.65 1,-8.44 3.01,-11.71 2.01,-3.27 4.64,-5.78 7.88,-7.54 3.24,-1.75 6.73,-2.63 10.47,-2.63 4.02,0 7.45,0.82 10.29,2.46 2.84,1.64 5.02,3.92 6.55,6.85 1.52,2.93 2.28,6.37 2.28,10.34 0,0.8 -0.03,1.58 -0.09,2.33 -0.06,0.75 -0.14,1.41 -0.26,1.98 h -35.4 v -5.51 h 31.18 l -1.81,1.98 c 0,-4.94 -1.13,-8.64 -3.4,-11.11 -2.27,-2.47 -5.33,-3.7 -9.17,-3.7 -2.58,0 -4.98,0.63 -7.19,1.9 -2.21,1.26 -3.98,3.1 -5.3,5.51 -1.32,2.41 -1.98,5.37 -1.98,8.87 0,3.5 0.72,6.63 2.15,9.04 1.43,2.41 3.39,4.24 5.86,5.47 2.47,1.24 5.25,1.85 8.36,1.85 2.53,0 4.81,-0.36 6.85,-1.08 2.04,-0.72 4.01,-1.68 5.9,-2.89 l 2.58,4.65 c -2.07,1.38 -4.44,2.56 -7.11,3.53 -2.67,0.98 -5.7,1.46 -9.09,1.46 z"
           id="path41" />
        <path
           class="cls-12"
           d="m 3693.87,1859.18 c -4.19,0 -8,-0.86 -11.41,-2.58 -3.42,-1.72 -6.13,-4.23 -8.14,-7.54 -2.01,-3.3 -3.01,-7.28 -3.01,-11.93 0,-4.65 1,-8.44 3.01,-11.71 2.01,-3.27 4.64,-5.78 7.88,-7.54 3.24,-1.75 6.73,-2.63 10.47,-2.63 4.02,0 7.45,0.82 10.29,2.46 2.84,1.64 5.02,3.92 6.55,6.85 1.52,2.93 2.28,6.37 2.28,10.34 0,0.8 -0.03,1.58 -0.09,2.33 -0.06,0.75 -0.14,1.41 -0.26,1.98 h -35.4 v -5.51 h 31.18 l -1.81,1.98 c 0,-4.94 -1.13,-8.64 -3.4,-11.11 -2.27,-2.47 -5.33,-3.7 -9.17,-3.7 -2.58,0 -4.98,0.63 -7.19,1.9 -2.21,1.26 -3.98,3.1 -5.3,5.51 -1.32,2.41 -1.98,5.37 -1.98,8.87 0,3.5 0.72,6.63 2.15,9.04 1.43,2.41 3.39,4.24 5.86,5.47 2.47,1.24 5.25,1.85 8.36,1.85 2.53,0 4.81,-0.36 6.85,-1.08 2.04,-0.72 4.01,-1.68 5.9,-2.89 l 2.58,4.65 c -2.07,1.38 -4.44,2.56 -7.11,3.53 -2.67,0.98 -5.7,1.46 -9.09,1.46 z"
           id="path42" />
        <path
           class="cls-12"
           d="m 3740.47,1859.18 c -5.46,0 -9.85,-1.91 -13.18,-5.73 -3.33,-3.82 -5,-9.2 -5,-16.15 0,-4.54 0.9,-8.46 2.71,-11.76 1.81,-3.3 4.16,-5.84 7.06,-7.62 2.9,-1.78 5.99,-2.67 9.26,-2.67 2.47,0 4.72,0.47 6.76,1.42 2.04,0.95 3.95,2.28 5.73,4.01 h 0.26 l -0.34,-7.75 v -16.11 h 7.06 v 61.33 h -5.86 l -0.6,-5.51 h -0.26 c -1.67,1.78 -3.69,3.32 -6.07,4.61 -2.38,1.29 -4.9,1.94 -7.54,1.94 z m 1.46,-5.95 c 2.07,0 4.08,-0.53 6.03,-1.59 1.95,-1.06 3.88,-2.63 5.77,-4.7 v -20.84 c -1.89,-1.78 -3.75,-3.04 -5.56,-3.79 -1.81,-0.75 -3.63,-1.12 -5.47,-1.12 -2.41,0 -4.61,0.68 -6.59,2.02 -1.98,1.35 -3.56,3.22 -4.74,5.6 -1.18,2.38 -1.77,5.18 -1.77,8.4 0,5 1.09,8.92 3.27,11.76 2.18,2.84 5.2,4.26 9.04,4.26 z"
           id="path43" />
        <path
           class="cls-12"
           d="m 3794.65,1859.18 c -3.68,0 -7.08,-0.86 -10.21,-2.58 -3.13,-1.72 -5.66,-4.22 -7.58,-7.49 -1.92,-3.27 -2.89,-7.21 -2.89,-11.8 0,-4.59 0.96,-8.7 2.89,-11.97 1.92,-3.27 4.45,-5.77 7.58,-7.49 3.13,-1.72 6.53,-2.58 10.21,-2.58 3.68,0 7.08,0.86 10.21,2.58 3.13,1.72 5.66,4.22 7.58,7.49 1.92,3.27 2.89,7.26 2.89,11.97 0,4.71 -0.96,8.53 -2.89,11.8 -1.92,3.27 -4.45,5.77 -7.58,7.49 -3.13,1.72 -6.53,2.58 -10.21,2.58 z m 0,-5.86 c 2.7,0 5.05,-0.67 7.06,-2.02 2.01,-1.35 3.56,-3.23 4.65,-5.64 1.09,-2.41 1.64,-5.2 1.64,-8.36 0,-3.16 -0.55,-6.04 -1.64,-8.48 -1.09,-2.44 -2.64,-4.33 -4.65,-5.68 -2.01,-1.35 -4.36,-2.02 -7.06,-2.02 -2.7,0 -5.04,0.68 -7.02,2.02 -1.98,1.35 -3.53,3.24 -4.65,5.68 -1.12,2.44 -1.68,5.27 -1.68,8.48 0,3.21 0.56,5.94 1.68,8.36 1.12,2.41 2.67,4.29 4.65,5.64 1.98,1.35 4.32,2.02 7.02,2.02 z"
           id="path44" />
        <path
           class="cls-12"
           d="m 3825.48,1858.14 v -41.86 h 5.68 l 0.6,5.51 h 0.17 c 1.09,-1.95 2.35,-3.53 3.79,-4.74 1.43,-1.21 3.36,-1.81 5.77,-1.81 2.07,0 3.76,0.6 5.08,1.81 1.32,1.21 2.27,3.01 2.84,5.43 1.21,-2.24 2.54,-4 4,-5.3 1.46,-1.29 3.4,-1.94 5.81,-1.94 2.93,0 5.21,1.11 6.85,3.32 1.64,2.21 2.45,5.41 2.45,9.6 v 29.98 h -7.06 v -29.46 c 0,-4.88 -1.49,-7.32 -4.48,-7.32 -1.44,0 -2.63,0.53 -3.58,1.59 -0.95,1.06 -2,2.69 -3.14,4.87 v 30.32 h -6.55 v -29.46 c 0,-2.41 -0.33,-4.23 -0.99,-5.47 -0.66,-1.23 -1.77,-1.85 -3.32,-1.85 -1.44,0 -2.68,0.53 -3.75,1.59 -1.06,1.06 -2.11,2.69 -3.14,4.87 v 30.32 h -7.06 z"
           id="path45" />
        <path
           class="cls-12"
           d="m 3898.87,1859.18 c -4.08,0 -7.9,-0.66 -11.46,-1.98 -3.56,-1.32 -6.6,-2.84 -9.13,-4.57 l 3.27,-4.65 c 2.41,1.72 5.08,3.1 8.01,4.13 2.93,1.03 6.32,1.55 10.17,1.55 3.56,0 6.21,-0.66 7.97,-1.98 1.75,-1.32 2.63,-2.84 2.63,-4.57 0,-0.8 -0.16,-1.55 -0.47,-2.24 -0.32,-0.69 -0.92,-1.35 -1.81,-1.98 -0.89,-0.63 -2.2,-1.23 -3.92,-1.81 -1.72,-0.57 -4.02,-1.15 -6.89,-1.72 -5.46,-1.15 -9.55,-2.7 -12.28,-4.65 -2.73,-1.95 -4.09,-4.48 -4.09,-7.58 0,-3.39 1.46,-6.21 4.39,-8.48 2.93,-2.27 7.26,-3.4 13.01,-3.4 3.22,0 6.32,0.53 9.3,1.59 2.99,1.06 5.51,2.31 7.58,3.75 l -3.45,4.56 c -1.89,-1.38 -4.05,-2.45 -6.46,-3.23 -2.41,-0.78 -4.94,-1.16 -7.58,-1.16 -2.41,0 -4.32,0.27 -5.73,0.82 -1.41,0.55 -2.41,1.28 -3.01,2.2 -0.6,0.92 -0.9,1.92 -0.9,3.01 0,1.78 0.96,3.17 2.89,4.18 1.92,1.01 5.01,1.94 9.26,2.8 4.65,0.98 8.23,2.07 10.72,3.27 2.49,1.2 4.22,2.58 5.17,4.13 0.95,1.55 1.42,3.39 1.42,5.51 0,2.3 -0.72,4.38 -2.15,6.25 -1.44,1.87 -3.53,3.37 -6.29,4.52 -2.76,1.15 -6.15,1.72 -10.16,1.72 z"
           id="path46" />
        <path
           class="cls-12"
           d="m 3949.69,1859.18 c -1.9,0 -3.53,-0.67 -4.91,-2.02 -1.38,-1.35 -2.07,-3.09 -2.07,-5.21 0,-2.12 0.69,-3.95 2.07,-5.3 1.38,-1.35 3.01,-2.02 4.91,-2.02 1.9,0 3.6,0.68 4.95,2.02 1.35,1.35 2.02,3.12 2.02,5.3 0,2.18 -0.68,3.86 -2.02,5.21 -1.35,1.35 -3,2.02 -4.95,2.02 z"
           id="path47" />
        <path
           class="cls-12"
           d="m 4001.38,1859.18 c -3.68,0 -7.08,-0.86 -10.21,-2.58 -3.13,-1.72 -5.66,-4.22 -7.58,-7.49 -1.92,-3.27 -2.89,-7.21 -2.89,-11.8 0,-4.59 0.96,-8.7 2.89,-11.97 1.92,-3.27 4.45,-5.77 7.58,-7.49 3.13,-1.72 6.53,-2.58 10.21,-2.58 3.68,0 7.08,0.86 10.21,2.58 3.13,1.72 5.66,4.22 7.58,7.49 1.92,3.27 2.89,7.26 2.89,11.97 0,4.71 -0.96,8.53 -2.89,11.8 -1.92,3.27 -4.45,5.77 -7.58,7.49 -3.13,1.72 -6.53,2.58 -10.21,2.58 z m 0,-5.86 c 2.7,0 5.05,-0.67 7.06,-2.02 2.01,-1.35 3.56,-3.23 4.65,-5.64 1.09,-2.41 1.64,-5.2 1.64,-8.36 0,-3.16 -0.55,-6.04 -1.64,-8.48 -1.09,-2.44 -2.64,-4.33 -4.65,-5.68 -2.01,-1.35 -4.36,-2.02 -7.06,-2.02 -2.7,0 -5.04,0.68 -7.02,2.02 -1.98,1.35 -3.53,3.24 -4.65,5.68 -1.12,2.44 -1.68,5.27 -1.68,8.48 0,3.21 0.56,5.94 1.68,8.36 1.12,2.41 2.67,4.29 4.65,5.64 1.98,1.35 4.32,2.02 7.02,2.02 z"
           id="path48" />
        <path
           class="cls-12"
           d="m 4039.79,1858.14 v -41.86 h 5.86 l 0.6,9.91 h 0.26 c 2.18,-3.39 4.88,-6.06 8.1,-8.01 3.22,-1.95 6.75,-2.93 10.59,-2.93 1.55,0 3,0.13 4.35,0.39 1.35,0.26 2.66,0.7 3.92,1.33 l -1.64,6.12 c -1.44,-0.52 -2.67,-0.89 -3.7,-1.12 -1.03,-0.23 -2.38,-0.34 -4.05,-0.34 -3.16,0 -6.19,0.9 -9.09,2.71 -2.9,1.81 -5.61,4.9 -8.14,9.26 v 24.55 h -7.06 z"
           id="path49" />
        <path
           class="cls-12"
           d="m 4104.4,1877.44 c -4.08,0 -7.55,-0.46 -10.42,-1.38 -2.87,-0.92 -5.07,-2.24 -6.59,-3.96 -1.52,-1.72 -2.28,-3.82 -2.28,-6.29 0,-1.67 0.59,-3.32 1.77,-4.95 1.18,-1.64 2.89,-3.09 5.12,-4.35 v -0.34 c -1.09,-0.63 -2.08,-1.49 -2.97,-2.58 -0.89,-1.09 -1.33,-2.53 -1.33,-4.31 0,-1.32 0.43,-2.68 1.29,-4.09 0.86,-1.41 2.1,-2.66 3.7,-3.75 v -0.34 c -1.44,-1.09 -2.66,-2.55 -3.66,-4.39 -1,-1.84 -1.51,-3.99 -1.51,-6.46 0,-3.04 0.76,-5.69 2.28,-7.92 1.52,-2.24 3.53,-3.98 6.03,-5.21 2.5,-1.23 5.21,-1.85 8.14,-1.85 2.35,0 4.42,0.34 6.2,1.03 h 17.31 v 5.77 h -10.85 c 0.98,0.98 1.81,2.21 2.5,3.7 0.69,1.49 1.03,3.07 1.03,4.74 0,2.99 -0.72,5.56 -2.15,7.71 -1.44,2.15 -3.37,3.8 -5.81,4.95 -2.44,1.15 -5.18,1.72 -8.23,1.72 -1.09,0 -2.25,-0.13 -3.49,-0.39 -1.24,-0.26 -2.43,-0.65 -3.57,-1.16 -1.03,0.63 -1.84,1.35 -2.41,2.15 -0.57,0.8 -0.86,1.69 -0.86,2.67 0,1.61 0.76,2.81 2.28,3.62 1.52,0.8 3.66,1.21 6.42,1.21 h 9.39 c 5.4,0 9.4,0.75 12.02,2.24 2.61,1.49 3.92,4.02 3.92,7.58 0,2.58 -0.95,5 -2.84,7.24 -1.89,2.24 -4.58,4.03 -8.05,5.38 -3.47,1.35 -7.59,2.02 -12.36,2.02 z m 0.51,-5.17 c 3.27,0 6.09,-0.4 8.44,-1.21 2.35,-0.8 4.16,-1.84 5.43,-3.1 1.26,-1.26 1.89,-2.61 1.89,-4.05 0,-2.01 -0.79,-3.36 -2.37,-4.05 -1.58,-0.69 -3.98,-1.03 -7.19,-1.03 h -8.18 c -1.21,0 -2.34,-0.06 -3.4,-0.17 -1.06,-0.12 -2.05,-0.29 -2.97,-0.52 -1.95,1.09 -3.33,2.22 -4.13,3.4 -0.8,1.18 -1.21,2.37 -1.21,3.58 0,2.18 1.16,3.92 3.49,5.21 2.33,1.29 5.73,1.94 10.21,1.94 z m -0.95,-32.13 c 1.78,0 3.4,-0.4 4.87,-1.21 1.46,-0.8 2.63,-1.95 3.49,-3.45 0.86,-1.49 1.29,-3.24 1.29,-5.25 0,-2.01 -0.43,-3.66 -1.29,-5.13 -0.86,-1.46 -2.02,-2.61 -3.49,-3.45 -1.46,-0.83 -3.09,-1.25 -4.87,-1.25 -1.78,0 -3.32,0.42 -4.78,1.25 -1.46,0.83 -2.64,1.98 -3.53,3.45 -0.89,1.46 -1.33,3.17 -1.33,5.13 0,1.96 0.44,3.76 1.33,5.25 0.89,1.49 2.07,2.64 3.53,3.45 1.46,0.8 3.06,1.21 4.78,1.21 z"
           id="path50" />
      </g>
      <text
         xml:space="preserve"
         style="font-weight:100;font-size:85.9451px;line-height:1.8;font-family:Arad;-inkscape-font-specification:'Arad Thin';text-align:start;writing-mode:lr-tb;direction:rtl;text-anchor:start;fill:#cccccc;fill-opacity:1;stroke:none;stroke-width:1.77642;paint-order:markers fill stroke"
         x="3977.4675"
         y="1850.9033"
         id="text77"><tspan
           sodipodi:role="line"
           id="tspan77"
           x="3977.4675"
           y="1850.9033"
           style="font-style:normal;font-variant:normal;font-weight:normal;font-stretch:normal;font-family:'Vazir Code';-inkscape-font-specification:'Vazir Code';fill:#cccccc;fill-opacity:1;stroke:none;stroke-width:1.77642">بیشتر بیابید در </tspan></text>
    </g>
  </g>
  <g
     id="g54">
    <path
       id="path33-2"
       data-name="path33"
       class="cls-4"
       d="M2156.69,1625.97l8.87-72.14h22.72c10.34,0,20.32-2.96,29.93-8.96,9.61-6,17.64-13.76,24.11-23.46,6.47-9.7,10.25-19.86,11.55-30.48l17.09-139.01h67.89l-18.2,148.15c-2.68,22.08-10.99,42.76-24.75,62.16-13.76,19.4-31.03,34.82-51.72,46.37-20.69,11.55-42.3,17.27-64.84,17.27h-22.72l.09.09Z" />
    <path
       id="path51"
       class="cls-4"
       d="M2417.62,1203.21h67.7l-37.87,308.59h-67.7l37.87-308.59Z" />
    <path
       id="path52"
       class="cls-4"
       d="M2415.4,1625.97l8.87-72.14h44.8c10.34,0,20.32-2.96,30.02-8.96,9.7-6,17.83-13.76,24.2-23.46,6.47-9.7,10.25-19.86,11.64-30.48l17.09-139.01h67.52l-6.47,52.65c-.74,6.37,0,12.28,2.49,17.64,2.49,5.36,6.19,9.61,11.27,12.75,5.08,3.14,10.9,4.71,17.36,4.71h-.18l-8.87,72.14h.18c-6.19,0-12.1-1.48-17.46-4.43-5.45-2.96-10.71-7.2-15.89-12.75l-.37,3.42c-2.77,22.63-10.99,43.78-24.75,63.45-13.76,19.67-30.94,35.38-51.54,47.01-20.6,11.64-42.3,17.55-65.02,17.55h-44.8l-.09-.09ZM2602.26,1305.28h-41.84c1.39-10.9,2.49-19.95,3.33-27.16.83-7.11,1.94-15.89,3.23-26.51h61.98c-1.29,10.62-2.4,19.49-3.23,26.51-.92,7.2-2.03,16.26-3.33,27.16h-20.14Z" />
    <path
       id="path53"
       class="cls-4"
       d="M2644.1,1439.67h63.64l-8.87,72.14h-63.64c-5.17-5.91-8.31-13.49-9.33-22.54-1.02-9.05.09-18.1,3.33-27.16,3.23-9.05,8.22-16.53,14.87-22.54v.09Z" />
    <path
       id="path54"
       class="cls-4"
       d="M2707.55,1439.67h63.64l-8.87,72.14h-63.64c-5.17-5.91-8.31-13.49-9.33-22.54s.09-18.1,3.33-27.16c3.23-9.05,8.22-16.53,14.87-22.54v.09Z" />
    <path
       id="path55"
       class="cls-4"
       d="M2771.01,1439.67h63.64l-8.87,72.14h-63.64c-5.17-5.91-8.31-13.49-9.33-22.54-1.02-9.05.09-18.1,3.33-27.16,3.23-9.05,8.22-16.53,14.87-22.54v.09Z" />
    <path
       id="path56"
       class="cls-4"
       d="M2834.46,1439.67h63.64l-8.87,72.14h-63.64c-5.17-5.91-8.31-13.49-9.33-22.54-1.02-9.05.09-18.1,3.33-27.16,3.23-9.05,8.22-16.53,14.87-22.54v.09Z" />
    <path
       id="path57"
       class="cls-4"
       d="M2897.92,1439.67h63.64l-8.87,72.14h-63.64c-5.17-5.91-8.31-13.49-9.33-22.54-1.02-9.05.09-18.1,3.33-27.16,3.23-9.05,8.22-16.53,14.87-22.54v.09Z" />
    <path
       id="path58"
       class="cls-4"
       d="M2961.37,1439.67h63.64l-8.87,72.14h-63.64c-5.17-5.91-8.31-13.49-9.33-22.54-1.02-9.05.09-18.1,3.33-27.16,3.23-9.05,8.22-16.53,14.87-22.54v.09Z" />
    <path
       id="path59"
       class="cls-4"
       d="M3024.82,1439.67h63.64l-8.87,72.14h-63.64c-5.17-5.91-8.31-13.49-9.33-22.54-1.02-9.05.09-18.1,3.33-27.16,3.23-9.05,8.22-16.53,14.87-22.54v.09Z" />
    <path
       id="path60"
       class="cls-4"
       d="M3088.28,1439.67h63.64l-8.87,72.14h-63.64c-5.17-5.91-8.31-13.49-9.33-22.54-1.02-9.05.09-18.1,3.33-27.16,3.23-9.05,8.22-16.53,14.87-22.54v.09Z" />
    <path
       id="path61"
       class="cls-4"
       d="M3151.73,1439.67h63.64l-8.87,72.14h-63.64c-5.17-5.91-8.31-13.49-9.33-22.54-1.02-9.05.09-18.1,3.33-27.16,3.23-9.05,8.22-16.53,14.87-22.54v.09Z" />
    <path
       id="path62"
       class="cls-4"
       d="M3215.28,1439.67h39.07c-4.43-5.36-7.57-11.82-9.33-19.3-1.75-7.48-2.22-14.96-1.29-22.54,2.12-17.27,8.41-33.07,18.93-47.48,10.53-14.41,23.65-25.68,39.26-33.99,15.7-8.31,32.05-12.38,49.14-12.19,17.92,0,33.71,4.25,47.29,12.65,13.58,8.41,23.65,19.95,30.2,34.73,6.56,14.78,8.77,31.22,6.56,49.42-3.14,25.31-9.79,46.27-19.95,62.9-10.16,16.63-22.08,28.73-35.75,36.39-13.67,7.67-27.62,11.45-41.75,11.45h-131.34c-5.17-5.91-8.31-13.49-9.33-22.54-1.02-9.05.09-18.1,3.32-27.16,3.23-9.05,8.22-16.53,14.87-22.54l.09.18ZM3349.39,1439.2c5.54-1.66,9.79-6.83,12.65-15.52,2.86-8.68,4.62-16.16,5.45-22.72.83-6.74.18-12.38-1.94-16.9-2.12-4.53-5.17-7.67-9.24-9.7-3.97-1.94-8.5-2.96-13.39-2.96s-9.51,1.11-14.22,3.32c-4.71,2.22-8.59,5.26-11.73,9.24-3.14,3.97-4.99,8.41-5.45,13.39-.74,5.26-.65,10.07.46,14.5s4.43,9.24,10.16,14.22c5.63,4.99,14.78,9.33,27.34,13.02l-.09.09ZM3366.3,1268.98h-41.84c1.39-10.9,2.49-19.95,3.32-27.16.83-7.11,1.94-15.89,3.23-26.51h61.98c-1.29,10.62-2.4,19.49-3.23,26.51-.92,7.2-2.03,16.26-3.32,27.16h-20.14Z" />
    <path
       id="path63"
       class="cls-4"
       d="M3517.87,1203.21h67.7l-37.87,308.59h-67.7l37.87-308.59Z" />
    <path
       id="path64"
       class="cls-4"
       d="M3661.77,1625.97h-67.7l26.32-214.56c2.22-17.83,8.59-34.27,19.21-49.23,10.62-14.96,24.01-26.88,40.18-35.75,16.16-8.87,33.25-13.3,51.17-13.3h97.17c18.66,0,34.82,4.25,48.49,12.84,13.67,8.59,23.65,20.5,29.83,35.84,6.28,15.33,8.22,32.6,5.82,51.63-2.31,19.67-8.5,37.13-18.57,52.28-10.07,15.15-23,27.06-38.7,35.56-15.79,8.5-33.07,12.75-51.91,12.75-19.77,0-36.21-4.16-49.14-12.38-12.93-8.31-21.98-19.95-27.34-35.01-5.26-15.06-6.65-32.88-3.97-53.39,1.57-13.02,3.32-23.92,5.26-32.7h-5.54c-5.63,0-10.99,1.39-16.07,4.16-5.08,2.77-9.24,6.47-12.56,11.27-3.23,4.71-5.26,9.88-5.91,15.43l-26.32,214.56h.28ZM3819.72,1380.64h-29.28l-4.06,33.07c-.92,6.65-.83,12.47.55,17.36,1.29,4.99,3.97,8.77,8.04,11.45,4.06,2.68,9.61,4.06,16.72,4.06,4.25,0,8.5-.65,12.84-1.94s8.5-4.34,12.56-9.14c4.06-4.8,6.65-12.19,7.94-22.08,1.11-9.05-.18-16.72-3.79-23-3.6-6.28-10.81-9.61-21.52-9.88v.09Z" />
    <path
       id="path65"
       class="cls-4"
       d="M3856.66,1625.97l8.87-72.14h44.8c10.34,0,20.32-2.96,30.02-8.96,9.7-5.91,17.83-13.76,24.2-23.46,6.47-9.7,10.25-19.86,11.55-30.48l17.09-139.01h67.52l-6.47,52.65c-.74,6.37,0,12.28,2.49,17.64,2.49,5.36,6.19,9.61,11.27,12.75s10.81,4.71,17.36,4.71h-.18l-8.87,72.14h.18c-6.19,0-12.1-1.48-17.46-4.43-5.45-2.96-10.71-7.2-15.89-12.75l-.37,3.42c-2.77,22.63-10.99,43.78-24.75,63.45-13.76,19.67-30.94,35.38-51.54,47.01-20.6,11.64-42.3,17.55-65.02,17.55h-44.8v-.09Z" />
    <path
       id="path66"
       class="cls-4"
       d="M4085.36,1439.67h39.26c4.25,0,8.31-1.11,12.19-3.14,3.88-2.12,7.11-4.99,9.61-8.59,2.59-3.6,4.16-7.57,4.62-12.01l8.96-73.25h67.7l-10.07,82.39c-1.94,15.89-7.85,30.39-17.64,43.6-9.79,13.21-22.17,23.74-37.04,31.5-14.87,7.76-30.67,11.64-47.2,11.64h-39.26c-5.17-5.91-8.31-13.49-9.33-22.54-1.02-9.05.09-18.1,3.32-27.16,3.23-9.05,8.22-16.53,14.87-22.54v.09ZM4194.07,1296.41h-41.84c1.29-10.9,2.4-19.95,3.32-27.16.83-7.11,1.94-15.89,3.23-26.51h61.98c-1.29,10.62-2.4,19.49-3.23,26.51-.92,7.2-2.03,16.26-3.32,27.16h-20.14Z" />
  </g>
  <g
     id="g62">
    <path
       id="path67"
       class="cls-5"
       d="M2670.42,1041.85c-3.79,15.79-11.82,32.79-24.11,50.8-12.38,18.01-30.48,33.81-54.4,47.29-23.92,13.49-53.66,20.23-89.32,20.23h-31.59c-25.86,0-47.2-5.63-63.73-16.9-16.63-11.27-27.8-26.32-33.53-45.17-5.73-18.84-5.91-39.44-.46-61.61l26.79-108.9h67.7l-24.75,99.75c-2.68,10.9-2.96,20.97-.83,30.11,2.12,9.24,7.02,16.53,14.69,22.17,7.67,5.54,18.29,8.41,31.87,8.41h31.59c18.1,0,32.97-2.31,44.7-6.93,11.64-4.62,20.32-10.07,25.95-16.35,5.63-6.28,9.33-12.56,10.99-18.75,1.29-5.26.83-8.77-1.39-10.62-2.22-1.85-6.28-2.68-12.1-2.59l-94.58-.18,23.18-94.21c4.16-17,12.1-32.51,23.74-46.64,11.64-14.13,25.59-25.4,41.84-33.62,16.16-8.31,32.79-12.38,49.69-12.38h72.78l-16.72,67.89h-72.78c-4.62,0-9.14,1.11-13.49,3.14-4.34,2.12-8.04,5.08-11.08,8.77-3.05,3.79-5.17,8.04-6.37,12.84l-6.56,26.79h27.99c15.7,0,29.09,1.85,40.18,5.54,11.08,3.69,19.21,11.18,24.48,22.35,5.26,11.27,5.17,27.52-.18,48.68l-.18.09Z" />
    <path
       id="path68"
       class="cls-5"
       d="M2835.66,1045.82h-129.03l16.63-67.7h129.03c3.51,0,6.65-1.02,9.51-3.14,2.77-2.12,4.71-4.71,5.63-7.85,1.02-3.14.83-5.91-.37-8.5l-57.91-112.5,63.73-41.01,58.1,112.69c6.65,12.84,8.59,26.79,5.82,41.84-2.68,14.96-9.05,29.09-19.03,42.21-10.07,13.12-22.35,23.74-36.95,31.87-14.59,8.04-29.65,12.1-45.17,12.1h0Z" />
    <path
       id="path69"
       class="cls-5"
       d="M3048.75,737.23h67.7l-75.74,308.59h-67.7l75.74-308.59Z" />
    <path
       id="path70"
       class="cls-5"
       d="M2994.53,1160.08l17.73-72.14h44.8c10.34,0,20.69-2.96,31.13-8.87,10.44-5.91,19.49-13.76,27.06-23.46,7.57-9.7,12.75-19.86,15.33-30.48l34.17-139.01h67.52l-35.84,146.03c-5.54,22.63-16.44,43.78-32.6,63.55-16.16,19.77-35.28,35.38-57.36,47.01-22.08,11.64-44.43,17.36-67.06,17.36h-44.89ZM3220.82,839.39h-41.84c2.68-10.9,4.9-19.95,6.65-27.16,1.75-7.11,3.88-15.89,6.56-26.51h61.98c-2.59,10.62-4.8,19.49-6.56,26.51-1.75,7.2-3.97,16.26-6.65,27.16h-20.14Z" />
    <path
       id="path71"
       class="cls-5"
       d="M3306.81,770.76l-37.96-16.53,24.85-38.79c8.41-13.02,19.4-23.46,32.97-31.4s27.34-11.82,41.29-11.64h102.06l-11.08,45.17h-102.06c-4.62-.18-9.24,1.11-13.85,3.79s-8.41,6.19-11.27,10.62l-24.85,38.89-.09-.09ZM3337.11,771.22h67.7l-67.43,274.6h-67.7l67.43-274.6Z" />
    <path
       id="path72"
       class="cls-5"
       d="M3434.09,1160.08l17.73-72.14h22.72c10.34,0,20.69-2.96,31.03-8.87,10.34-5.91,19.4-13.76,26.97-23.46,7.57-9.7,12.75-19.86,15.33-30.48l34.18-139.01h67.89l-36.39,148.15c-5.45,22.08-16.16,42.76-32.33,62.16-16.16,19.4-35.28,34.82-57.45,46.37-22.17,11.55-44.43,17.27-66.96,17.27h-22.72ZM3638.5,839.39h-41.84c2.68-10.9,4.9-19.95,6.65-27.16,1.75-7.11,3.88-15.89,6.56-26.51h61.98c-2.59,10.62-4.8,19.49-6.56,26.51-1.75,7.2-3.97,16.26-6.65,27.16h-20.14Z" />
    <path
       id="path73"
       class="cls-5"
       d="M3853.15,1042.04c-4.99,20.23-15.24,39.44-30.85,57.64-15.61,18.2-33.44,32.79-53.76,43.87-20.23,10.99-39.53,16.53-57.73,16.53h-76.39l17.73-72.14h76.39c8.31,0,16.44-1.85,24.2-5.54,7.76-3.69,14.41-8.68,19.86-15.06s9.14-13.49,11.08-21.43h-27.34c-33.44,0-55.79-8.13-67.06-24.29-11.27-16.16-13.39-38.89-6.19-68.07,4.9-19.77,13.39-37.59,25.58-53.48,12.19-15.89,26.6-28.26,43.41-37.13,16.72-8.96,34.27-13.39,52.56-13.39s34.18,4.34,46.55,13.12c12.38,8.77,20.69,20.97,24.94,36.76,4.25,15.7,3.88,33.71-1.11,54.13l-21.71,88.49h-.18ZM3802.44,973.69l4.99-20.14c1.39-5.82,2.03-11.36,1.75-16.72s-1.94-9.98-5.17-13.95c-3.23-3.88-8.59-5.82-16.07-5.82s-14.22,2.22-19.4,6.56c-5.17,4.34-9.14,9.24-11.92,14.69-2.77,5.36-4.71,10.44-5.91,15.24-1.11,4.53-1.39,8.22-.92,11.08s2.59,5.08,6.28,6.65c3.69,1.66,9.61,2.4,17.83,2.4h28.54Z" />
    <path
       id="path74"
       class="cls-5"
       d="M3836.53,1160.08l17.73-72.14h22.72c10.34,0,20.69-2.96,31.03-8.87,10.34-5.91,19.4-13.76,26.97-23.46,7.57-9.7,12.75-19.86,15.33-30.48l34.18-139.01h67.89l-36.39,148.15c-5.45,22.08-16.16,42.76-32.33,62.16-16.16,19.4-35.28,34.82-57.45,46.37-22.17,11.55-44.43,17.27-66.96,17.27h-22.72Z" />
  </g>
  <g
     id="g77">
    <path
       class="cls-2"
       d="M2892.62,609.29c-21.94,0-40.7-4.9-56.28-14.71-15.59-9.81-26.88-22.86-33.89-39.15-7.01-16.3-9.32-34.13-6.94-53.49l11.1-90.44h51.84l-10.27,83.64c-1.31,10.66-.33,20.43,2.93,29.32,3.26,8.88,8.97,16.05,17.12,21.51,8.15,5.45,18.54,8.18,31.17,8.18h16.36c12.62,0,23.65-2.73,33.08-8.18,9.43-5.45,16.9-12.62,22.4-21.51,5.5-8.89,8.91-18.66,10.22-29.32l14.42-118.93h51.84l-6.43,53.86c-.56,4.54.04,8.67,1.78,12.41,1.75,3.74,4.32,6.71,7.73,8.92s7.37,3.31,11.91,3.31h11.03l-6.77,55.15h-11.03c-4.54,0-8.67-1.01-12.4-3.03-3.74-2.02-7.27-4.93-10.6-8.73l-.59,4.78c-2.59,19.12-9.42,36.76-20.47,52.94-11.06,16.18-25.48,29.14-43.29,38.88-17.8,9.74-37.67,14.61-59.61,14.61h-16.36ZM2928.29,374.18h-33.82c1.08-8.82,1.97-16.05,2.66-21.69.69-5.64,1.56-12.74,2.62-21.32h50c-1.05,8.58-1.93,15.69-2.62,21.32-.69,5.64-1.58,12.87-2.66,21.69h-16.18Z"
       id="path75" />
    <path
       class="cls-2"
       d="M3073.73,454.7h17.65c4.53,0,8.8-1.1,12.81-3.31,4.01-2.21,7.35-5.18,10.01-8.92,2.67-3.74,4.28-7.87,4.83-12.41l6.75-54.96h51.65l-6.75,54.96c-.56,4.54-.09,8.67,1.42,12.41,1.5,3.74,3.8,6.71,6.9,8.92,3.1,2.21,6.86,3.31,11.27,3.31h5.15c4.29,0,8.28-1.1,11.99-3.31,3.7-2.21,6.7-5.18,9-8.92,2.3-3.74,3.72-7.87,4.28-12.41l6.75-54.96h51.84l-6.75,54.96c-.56,4.54-.18,8.67,1.14,12.41,1.32,3.74,3.53,6.71,6.63,8.92,3.1,2.21,6.85,3.31,11.27,3.31h5.33c4.29,0,8.25-1.1,11.89-3.31,3.64-2.21,6.64-5.18,9-8.92,2.36-3.74,3.82-7.87,4.37-12.41l6.75-54.96h51.84l-6.75,54.96c-.56,4.54.04,8.67,1.79,12.41,1.75,3.74,4.35,6.71,7.82,8.92,3.47,2.21,7.41,3.31,11.82,3.31h17.83l-6.77,55.15h-17.83c-10.79,0-20.07-2.27-27.84-6.8-7.78-4.53-14.17-10.91-19.16-19.12-6.66,8.34-14.22,14.74-22.67,19.21-8.45,4.47-18.07,6.71-28.86,6.71h-5.33c-10.17,0-18.92-2.33-26.26-6.99-7.33-4.66-13.54-11.27-18.61-19.85-7.06,8.58-14.83,15.2-23.3,19.85-8.48,4.66-17.8,6.99-27.97,6.99h-5.15c-10.66,0-19.7-2.27-27.11-6.8-7.41-4.53-13.54-10.97-18.4-19.3-7.04,8.46-14.98,14.92-23.8,19.39-8.82,4.47-18.69,6.71-29.59,6.71h-17.65c-4.48-4.41-7.21-10.11-8.2-17.1-.98-6.98-.12-13.97,2.57-20.96,2.7-6.99,6.83-12.68,12.39-17.1ZM3235.18,331.53h-32.54c1.04-8.46,1.9-15.5,2.6-21.14.68-5.51,1.53-12.44,2.55-20.77h48.16c-1.02,8.33-1.87,15.26-2.55,20.77-.69,5.64-1.56,12.68-2.6,21.14h-15.62ZM3274.39,271.24h-32.54c1.04-8.46,1.89-15.38,2.55-20.77.69-5.64,1.55-12.62,2.57-20.96,6.25,0,11.39.06,15.42.18h14.34c4.66,0,10.79-.06,18.41-.18-1.02,8.34-1.88,15.32-2.57,20.96-.66,5.39-1.51,12.32-2.55,20.77h-15.62ZM3298.78,331.53h-32.54c1.04-8.46,1.9-15.5,2.6-21.14.68-5.51,1.53-12.44,2.55-20.77,6.25,0,11.33.06,15.24.18h14.61c4.6,0,10.7-.06,18.31-.18-1.02,8.33-1.87,15.26-2.55,20.77-.69,5.64-1.56,12.68-2.6,21.14h-15.62Z"
       id="path76" />
    <path
       class="cls-2"
       d="M3413.26,454.7h39.34c14.83,0,29.83-1.16,45.01-3.49,15.17-2.33,29.51-5.27,43-8.82,13.49-3.55,26.4-7.66,38.74-12.32,4.99-1.71,9.49-3.43,13.5-5.15-6.49-3.06-16.62-7.9-30.39-14.52-17.83-8.46-31.65-15.26-41.43-20.4h-.55c-4.97-2.45-9.77-3-14.41-1.65-4.64,1.35-8.63,3.68-11.98,6.99-3.35,3.31-5.93,6.86-7.74,10.66l-5.86,10.29-44.85-20.96,5.86-10.29c7.58-13.85,17.22-24.94,28.9-33.27,11.69-8.33,24.19-13.36,37.51-15.07,13.32-1.71,26.15.12,38.48,5.51,6.73,3.06,14.81,7.11,24.25,12.13,15.4,8.34,30.99,17.07,46.78,26.19,15.79,9.13,23.93,13.7,24.42,13.7l-3.43,50.37c-.26.12-.99.55-2.18,1.29-2.57,1.96-5.39,3.98-8.47,6.07-12.18,8.34-26.63,16.73-43.35,25.18-16.73,8.46-37.17,16.02-61.34,22.7-24.17,6.68-49.91,10.02-77.24,10.02h-39.34c-4.48-4.41-7.21-10.11-8.2-17.1-.98-6.98-.12-13.97,2.57-20.96,2.7-6.99,6.83-12.68,12.39-17.1ZM3504.88,594.77h-33.82c1.02-8.33,1.88-15.32,2.57-20.96.68-5.52,1.54-12.56,2.6-21.14h50c-1.05,8.58-1.92,15.62-2.6,21.14-.69,5.63-1.55,12.62-2.57,20.96h-16.18Z"
       id="path77" />
  </g>
  <metadata
     id="metadata77">
    <rdf:RDF>
      <cc:Work
         rdf:about="">
        <dc:title>پوستر جشن روز آزادی نرم‌افزار</dc:title>
        <dc:date>8 مرداد ۱۴۰۴</dc:date>
        <dc:creator>
          <cc:Agent>
            <dc:title>محمد درویشی</dc:title>
          </cc:Agent>
        </dc:creator>
        <dc:rights>
          <cc:Agent>
            <dc:title>CC-BY_SA</dc:title>
          </cc:Agent>
        </dc:rights>
        <dc:publisher>
          <cc:Agent>
            <dc:title>زنجان‌لاگ</dc:title>
          </cc:Agent>
        </dc:publisher>
        <dc:source>digitalfreedoms.org</dc:source>
        <dc:language>فارسی</dc:language>
      </cc:Work>
    </rdf:RDF>
  </metadata>
</svg>
